<svg width="16" height="15" viewBox="0 0 16 15" fill="none" xmlns="http://www.w3.org/2000/svg">
<path d="M3.42182 1.24364L2.39636 0.210909C0 2.59127 0 4.31636 0 6.54545H0.727273L1.45455 6.49964C1.45455 4.37018 1.45455 3.19709 3.42182 1.24364ZM13.6029 0.210909L12.5789 1.24364C14.5455 3.19709 14.5455 4.37018 14.5455 6.54545L16 6.49964C16 4.31636 16 2.59127 13.6029 0.210909ZM8 14.5455C8.4504 14.546 8.88979 14.4063 9.25708 14.1456C9.62438 13.8849 9.90134 13.5163 10.0495 13.0909H5.95055C6.09866 13.5163 6.37562 13.8849 6.74292 14.1456C7.11021 14.4063 7.5496 14.546 8 14.5455ZM13.0909 9.15345V5.81818C13.0909 3.47855 11.5018 1.50764 9.34909 0.914909C9.136 0.378182 8.61527 0 8 0C7.38473 0 6.864 0.378182 6.65091 0.914909C4.49746 1.50764 2.90909 3.47855 2.90909 5.81818V9.15345L1.66764 10.3949C1.59997 10.4623 1.54631 10.5425 1.50973 10.6307C1.47316 10.719 1.45441 10.8136 1.45455 10.9091V11.6364C1.45455 11.8292 1.53117 12.0142 1.66756 12.1506C1.80395 12.287 1.98893 12.3636 2.18182 12.3636H13.8182C14.0111 12.3636 14.1961 12.287 14.3324 12.1506C14.4688 12.0142 14.5455 11.8292 14.5455 11.6364V10.9091C14.5456 10.8136 14.5268 10.719 14.4903 10.6307C14.4537 10.5425 14.4 10.4623 14.3324 10.3949L13.0909 9.15345Z" fill="#FFD60A"/>
</svg>
