<svg width="26" height="25" viewBox="0 0 26 25" fill="none" xmlns="http://www.w3.org/2000/svg">
<path d="M6.2457 12.5C6.2457 15.9513 9.0532 18.7588 12.5045 18.7588C15.9557 18.7588 18.7632 15.9513 18.7632 12.5C18.7632 9.04875 15.9557 6.24125 12.5045 6.24125C9.0532 6.24125 6.2457 9.04875 6.2457 12.5ZM11.252 21.25H13.752V25H11.252V21.25ZM11.252 0H13.752V3.75H11.252V0ZM0.00195312 11.25H3.75195V13.75H0.00195312V11.25ZM21.252 11.25H25.002V13.75H21.252V11.25ZM4.5482 22.2225L2.7807 20.455L5.43195 17.8037L7.19945 19.5712L4.5482 22.2225ZM17.8045 5.43L20.457 2.7775L22.2245 4.545L19.572 7.1975L17.8045 5.43ZM5.43195 7.19875L2.7807 4.54625L4.54945 2.77875L7.19945 5.43125L5.43195 7.19875ZM22.2245 20.455L20.457 22.2225L17.8045 19.57L19.572 17.8025L22.2245 20.455Z" fill="white"/>
</svg>
