<svg width="20" height="17" viewBox="0 0 20 17" fill="none" xmlns="http://www.w3.org/2000/svg">
<path d="M18.3203 1.32031H18.8203V0.820312C18.8203 0.630029 18.869 0.577661 18.8804 0.566756C18.8962 0.551701 18.9646 0.5 19.1797 0.5H19.5V5.32031H16.6797H16.1797V5.82031C16.1797 5.86132 16.1712 5.96789 16.145 6.16439C16.1191 6.35851 16.1016 6.52538 16.1016 6.64062V7H15.8693L15.729 7.268C15.4809 7.74163 15.1628 8.07681 14.7799 8.29708C14.3951 8.51852 13.9153 8.64062 13.3203 8.64062H12.4219H12.0447L11.9411 9.00326C11.7619 9.63056 11.4188 10.1399 10.9028 10.5437C10.3911 10.9442 9.82233 11.1406 9.17969 11.1406H7.65625H7.20376L7.15873 11.5909C7.05385 12.6397 7 13.4917 7 14.1406C7 14.7878 6.80877 15.2576 6.46285 15.6035C6.11694 15.9494 5.64716 16.1406 5 16.1406H2.5C1.65535 16.1406 1.17763 15.8978 0.914679 15.5297L0.901033 15.5106L0.885657 15.4928C0.657608 15.2297 0.5 14.7828 0.5 14.0625C0.5 14.0634 0.500019 14.0631 0.500129 14.0614C0.500489 14.0557 0.501831 14.0347 0.506707 13.9908C0.512418 13.9394 0.521394 13.8701 0.534037 13.7816C0.559279 13.605 0.597619 13.3619 0.649447 13.0509C0.750207 12.4464 0.941542 11.5832 1.22693 10.4546C1.50988 9.33566 1.81759 8.31697 2.1495 7.39767C2.57397 6.24309 3.31558 5.43631 4.38733 4.94703L4.67969 4.81357V4.52217C4.67971 4.52207 4.67972 4.52198 4.67974 4.52189C4.68405 4.50035 4.69171 4.46659 4.70382 4.41814C4.73163 4.30692 4.75781 4.17915 4.75781 4.0625V3.72124L4.44001 3.59688C3.9778 3.41601 3.62672 3.07705 3.38735 2.53301C3.20394 2.11617 3.08767 1.71236 3.0343 1.32031H3.7232C3.75817 1.66771 3.86238 2.00233 4.02974 2.32185C4.21302 2.67175 4.52358 3 5 3H5.25337L5.4032 2.79568C5.89726 2.12197 6.62452 1.64459 7.62668 1.38212L7.86269 1.32031H18.3203ZM8 2.65625V1.97402L7.34943 2.17946C6.75009 2.36873 6.25847 2.72714 5.88469 3.24107C5.50812 3.75886 5.32031 4.35077 5.32031 5C5.32031 5.62876 5.51138 6.20656 5.88469 6.71987C6.25847 7.2338 6.75009 7.59221 7.34943 7.78148L8 7.98692V7.30469V2.65625ZM1.3106 15.0283L1.33429 15.0757L1.36738 15.117C1.51383 15.3001 1.71889 15.3886 1.89424 15.4347C2.07517 15.4823 2.28176 15.5 2.5 15.5H5C5.35659 15.5 5.71438 15.4054 5.97691 15.1304C6.23529 14.8597 6.32031 14.4985 6.32031 14.1406C6.32031 12.9843 6.51012 11.1939 6.9 8.75067L6.95719 8.39229L6.63419 8.22685C5.67806 7.73713 5.08648 7.03436 4.81581 6.10955L4.61699 5.43025L4.04319 5.84466C3.48268 6.24947 3.06603 6.82848 2.77795 7.54868L2.775 7.55605L2.77229 7.5635C2.02977 9.60542 1.50101 11.8021 1.18417 14.1519L1.17969 14.1852V14.2188C1.17969 14.3751 1.18668 14.5192 1.2036 14.6462C1.21961 14.7662 1.24852 14.9041 1.3106 15.0283ZM7.44159 9.89153L7.30638 10.5H7.92969H9.17969C9.58889 10.5 9.9705 10.413 10.2998 10.2118C10.6315 10.0091 10.8757 9.71136 11.0411 9.34753L11.3624 8.64062H10.5859H8.08594H7.58594V9.13857C7.58594 9.13846 7.58593 9.13841 7.58593 9.13841C7.58583 9.13841 7.58516 9.15236 7.58056 9.18685C7.57545 9.22514 7.56715 9.27701 7.55494 9.34415C7.53055 9.47828 7.49305 9.66 7.44159 9.89153ZM8.67969 7.5V8H9.17969H13.3203C13.9254 8 14.4526 7.77511 14.8721 7.33874C15.2812 6.91331 15.5 6.40066 15.5 5.82031V5.5V5.32031V5V4.14062V3.82031V3.64062V3.32031V2.5V2H15H9.17969H8.67969V2.5V7.5ZM18.3203 4.64062H18.8203V4.14062V2.5V2H18.3203H16.6797H16.1797V2.5V4.14062V4.64062H16.6797H18.3203ZM4.5 12.5C4.5 12.5557 4.4832 12.6222 4.39254 12.7129C4.30188 12.8035 4.23541 12.8203 4.17969 12.8203C4.08107 12.8203 4.00552 12.7906 3.92777 12.7129C3.83711 12.6222 3.82031 12.5557 3.82031 12.5C3.82031 12.4014 3.85002 12.3258 3.92777 12.2481C4.00552 12.1703 4.08107 12.1406 4.17969 12.1406C4.23541 12.1406 4.30188 12.1574 4.39254 12.2481C4.47029 12.3258 4.5 12.4014 4.5 12.5Z" fill="#FF453A" stroke="#8E8E93"/>
</svg>
