<svg width="20" height="17" viewBox="0 0 20 17" fill="none" xmlns="http://www.w3.org/2000/svg">
<path d="M5 12.5C5 12.7083 4.91536 12.8971 4.74609 13.0664C4.57682 13.2357 4.38802 13.3203 4.17969 13.3203C3.94531 13.3203 3.74349 13.2357 3.57422 13.0664C3.40495 12.8971 3.32031 12.7083 3.32031 12.5C3.32031 12.2656 3.40495 12.0638 3.57422 11.8945C3.74349 11.7253 3.94531 11.6406 4.17969 11.6406C4.38802 11.6406 4.57682 11.7253 4.74609 11.8945C4.91536 12.0638 5 12.2656 5 12.5ZM18.3203 0.820312H7.5V0.898438C6.40625 1.1849 5.57292 1.71875 5 2.5C4.79167 2.5 4.61589 2.36328 4.47266 2.08984C4.32943 1.81641 4.24479 1.53646 4.21875 1.25L4.17969 0.820312H2.5C2.5 1.44531 2.64323 2.08333 2.92969 2.73438C3.21615 3.38542 3.65885 3.82812 4.25781 4.0625C4.25781 4.11458 4.24479 4.19271 4.21875 4.29688C4.19271 4.40104 4.17969 4.46615 4.17969 4.49219C2.98177 5.03906 2.14844 5.95052 1.67969 7.22656C1.34115 8.16406 1.02865 9.19922 0.742188 10.332C0.455729 11.4648 0.260417 12.3438 0.15625 12.9688C0.0520833 13.5938 0 13.9583 0 14.0625C0 14.8438 0.169271 15.4297 0.507812 15.8203C0.898438 16.3672 1.5625 16.6406 2.5 16.6406H5C5.75521 16.6406 6.36068 16.4128 6.81641 15.957C7.27214 15.5013 7.5 14.8958 7.5 14.1406C7.5 13.5156 7.55208 12.6823 7.65625 11.6406H9.17969C9.9349 11.6406 10.612 11.4062 11.2109 10.9375C11.8099 10.4688 12.2135 9.86979 12.4219 9.14062H13.3203C14.6484 9.14062 15.599 8.59375 16.1719 7.5H17.9297C18.1901 7.5 18.3203 7.35677 18.3203 7.07031C18.3203 6.78385 18.1901 6.64062 17.9297 6.64062H16.6016C16.6016 6.5625 16.6146 6.42578 16.6406 6.23047C16.6667 6.03516 16.6797 5.89844 16.6797 5.82031H20V0H19.1797C18.6068 0 18.3203 0.273438 18.3203 0.820312ZM7.5 2.65625V7.30469C7.00521 7.14844 6.60156 6.85547 6.28906 6.42578C5.97656 5.99609 5.82031 5.52083 5.82031 5C5.82031 4.45312 5.97656 3.96484 6.28906 3.53516C6.60156 3.10547 7.00521 2.8125 7.5 2.65625ZM5 15H2.5C2.10938 15 1.86198 14.9349 1.75781 14.8047C1.70573 14.7005 1.67969 14.5052 1.67969 14.2188C1.99219 11.901 2.51302 9.73958 3.24219 7.73438C3.5026 7.08333 3.86719 6.58854 4.33594 6.25C4.64844 7.31771 5.33854 8.125 6.40625 8.67188C6.01562 11.1198 5.82031 12.9427 5.82031 14.1406C5.82031 14.7135 5.54688 15 5 15ZM9.17969 10H7.92969C8.03385 9.53125 8.08594 9.24479 8.08594 9.14062H10.5859C10.3255 9.71354 9.85677 10 9.17969 10ZM13.3203 7.5H9.17969V2.5H15V3.32031H11.25C10.9635 3.32031 10.8203 3.46354 10.8203 3.75C10.8203 4.01042 10.9635 4.14062 11.25 4.14062H15V5H11.25C10.9635 5 10.8203 5.13021 10.8203 5.39062C10.8203 5.67708 10.9635 5.82031 11.25 5.82031H15C15 6.26302 14.8372 6.65365 14.5117 6.99219C14.1862 7.33073 13.7891 7.5 13.3203 7.5ZM18.3203 4.14062H16.6797V2.5H18.3203V4.14062Z" fill="#FF453A"/>
</svg>
