<svg width="16" height="15" viewBox="0 0 16 15" fill="none" xmlns="http://www.w3.org/2000/svg">
<path d="M15.0519 1.60874L14.0254 1.17974V8.09731L15.8869 3.60817C16.201 2.82678 15.841 1.93048 15.0519 1.60874ZM0.113646 4.44318L3.91333 13.5977C4.02522 13.8762 4.21607 14.1159 4.46242 14.2874C4.70876 14.4589 4.99986 14.5547 5.29991 14.5629C5.49909 14.5629 5.70592 14.5246 5.9051 14.4403L11.551 12.1038C12.1256 11.8664 12.4779 11.2995 12.4933 10.7326C12.5009 10.5334 12.4626 10.3112 12.3937 10.1121L8.56335 0.957582C8.45507 0.677217 8.26491 0.435938 8.0176 0.265148C7.7703 0.094358 7.47731 0.00196705 7.17677 0C6.97759 0 6.77842 0.045964 6.5869 0.11491L0.948657 2.45141C0.57387 2.60489 0.275371 2.90092 0.118788 3.27442C-0.0377946 3.64792 -0.0396442 4.06832 0.113646 4.44318ZM12.4856 1.53213C12.4856 1.12578 12.3242 0.736081 12.0369 0.448751C11.7495 0.16142 11.3598 0 10.9535 0H9.84268L12.4856 6.38899" fill="white"/>
</svg>
