<svg width="25" height="25" viewBox="0 0 25 25" fill="none" xmlns="http://www.w3.org/2000/svg">
<path opacity="0.1" fill-rule="evenodd" clip-rule="evenodd" d="M0 12.066C0 4.73273 5.51664 0 10.3299 0C10.615 0 10.8775 0.155349 11.0147 0.405305C11.1519 0.655262 11.1421 0.960121 10.989 1.20068C5.36119 10.0443 14.9557 19.6388 23.7993 14.011C24.0399 13.8579 24.3447 13.8481 24.5947 13.9853C24.8447 14.1225 25 14.385 25 14.6701C25 19.4834 20.2673 25 12.934 25C5.55811 25 0 19.4419 0 12.066ZM8.90583 1.73014C5.35891 2.54572 1.5625 6.29561 1.5625 12.066C1.5625 18.5789 6.42106 23.4375 12.934 23.4375C18.7044 23.4375 22.4543 19.6411 23.2699 16.0942C13.8797 20.6382 4.36177 11.1203 8.90583 1.73014Z" fill="white"/>
</svg>
