<svg width="32" height="23" viewBox="0 0 32 23" fill="none" xmlns="http://www.w3.org/2000/svg">
<path opacity="0.1" fill-rule="evenodd" clip-rule="evenodd" d="M8.21428 8.21429H1.64286L1.64286 21.3571H8.21428V8.21429ZM9.03571 6.79121C8.79407 6.65143 8.51352 6.57143 8.21428 6.57143H1.64286C0.735532 6.57143 0 7.30696 0 8.21429V21.3571C0 22.2645 0.735532 23 1.64286 23H8.21428C8.62165 23 8.99438 22.8517 9.28146 22.6062C9.63381 22.3049 9.85714 21.8571 9.85714 21.3571V8.21429C9.85714 7.6062 9.52676 7.07527 9.03571 6.79121ZM10.6786 21.3571C10.6786 21.8571 10.9019 22.3049 11.2542 22.6062C11.5413 22.8517 11.9141 23 12.3214 23H18.8929C19.3002 23 19.6729 22.8517 19.96 22.6062C20.3124 22.3049 20.5357 21.8571 20.5357 21.3571V1.64286C20.5357 0.735532 19.8002 0 18.8929 0H12.3214C11.4141 0 10.6786 0.735533 10.6786 1.64286V21.3571ZM22.1786 12.5412C21.6875 12.8253 21.3571 13.3562 21.3571 13.9643V21.3571C21.3571 21.8571 21.5805 22.3049 21.9328 22.6062C22.2199 22.8517 22.5926 23 23 23H29.5714C30.4788 23 31.2143 22.2645 31.2143 21.3571V13.9643C31.2143 13.057 30.4788 12.3214 29.5714 12.3214H23C22.7008 12.3214 22.4202 12.4014 22.1786 12.5412ZM18.8929 1.64286H12.3214V21.3571H18.8929V1.64286ZM29.5714 13.9643H23V21.3571H29.5714V13.9643Z" fill="white"/>
</svg>
