<svg width="12" height="14" viewBox="0 0 12 14" fill="none" xmlns="http://www.w3.org/2000/svg">
<path fill-rule="evenodd" clip-rule="evenodd" d="M5.6 0L0 2.1V6.5L1.4 6.14811L4.01865 5.06653L6.98862 6.05652L9.8 5.15858L11.2 5.5V2.1L5.6 0ZM5.6 1.498L1.4 3.073V4.97254L3.98134 4L7.01136 5.01001L9.8 4.09682V3.073L5.6 1.498Z" fill="#0A84FF"/>
<path fill-rule="evenodd" clip-rule="evenodd" d="M0.7 9.65049C1.63523 11.7745 3.42906 13.4561 5.6 14C7.78887 13.4516 9.59438 11.7466 10.523 9.59777L9.38047 8.70005L7.07036 9.44598L4.03588 7.423L0.748449 9.06721L0.511716 9.18561C0.523423 9.21721 0.535317 9.24872 0.547396 9.28015C0.595369 9.40497 0.646267 9.52846 0.7 9.65049ZM6.92963 10.554L3.96411 8.577L2.15997 9.47934C2.90363 10.9265 4.13607 12.0645 5.6 12.544C6.91742 12.1125 8.04737 11.1456 8.80233 9.90136L6.92963 10.554Z" fill="#0A84FF"/>
</svg>
