<svg width="12" height="14" viewBox="0 0 12 14" fill="none" xmlns="http://www.w3.org/2000/svg">
<mask id="path-1-inside-1_491_664" fill="white">
<path fill-rule="evenodd" clip-rule="evenodd" d="M1.64706 2.05882C1.64706 2.05882 4.23399 0 5.76471 0C7.29535 0 9.88235 2.05882 9.88235 2.05882C9.88235 2.05882 11.3349 5.3888 11.3349 6.99999C11.3349 8.61119 10.6787 10.9014 9.63938 11.9412C8.59997 12.9809 5.66747 14 5.66747 14C5.66747 14 2.73387 12.9809 1.69453 11.9412C0.655148 10.9014 0 8.61117 0 6.99999C0 5.38878 1.64706 2.05882 1.64706 2.05882ZM4.75627 5.11088C4.75627 5.74207 4.24459 6.25375 3.6134 6.25375C2.98221 6.25375 2.47053 5.74207 2.47053 5.11088C2.47053 4.47969 2.98221 3.96801 3.6134 3.96801C4.24459 3.96801 4.75627 4.47969 4.75627 5.11088ZM7.91596 6.25375C8.54715 6.25375 9.05883 5.74207 9.05883 5.11088C9.05883 4.47969 8.54715 3.96801 7.91596 3.96801C7.28477 3.96801 6.77309 4.47969 6.77309 5.11088C6.77309 5.74207 7.28477 6.25375 7.91596 6.25375Z"/>
</mask>
<path d="M1.64706 2.05882L1.21116 1.51111L1.08889 1.60841L1.01961 1.74848L1.64706 2.05882ZM9.88235 2.05882L10.524 1.77894L10.4544 1.61946L10.3182 1.5111L9.88235 2.05882ZM9.63938 11.9412L10.1344 12.4361L10.1344 12.4361L9.63938 11.9412ZM5.66747 14L5.43777 14.6612L5.66751 14.741L5.89725 14.6612L5.66747 14ZM1.69453 11.9412L1.19944 12.436L1.19945 12.4361L1.69453 11.9412ZM5.76471 -0.7C5.24404 -0.7 4.6937 -0.529961 4.2036 -0.32332C3.70163 -0.111676 3.20177 0.165004 2.76553 0.432924C2.32728 0.702076 1.94089 0.970043 1.66453 1.17025C1.52598 1.27061 1.41421 1.35458 1.33639 1.41401C1.29745 1.44373 1.26696 1.46736 1.2458 1.48387C1.23522 1.49213 1.22697 1.49861 1.22116 1.50319C1.21826 1.50548 1.21596 1.5073 1.21429 1.50862C1.21345 1.50929 1.21277 1.50983 1.21225 1.51024C1.21199 1.51045 1.21177 1.51062 1.21159 1.51077C1.21149 1.51084 1.21139 1.51093 1.21134 1.51096C1.21125 1.51104 1.21116 1.51111 1.64706 2.05882C2.08296 2.60654 2.08289 2.60659 2.08283 2.60664C2.08283 2.60664 2.08278 2.60668 2.08277 2.60669C2.08274 2.60671 2.08276 2.6067 2.08281 2.60666C2.08292 2.60657 2.08318 2.60637 2.08359 2.60604C2.08442 2.60538 2.08585 2.60425 2.08789 2.60264C2.09196 2.59943 2.09842 2.59435 2.10717 2.58753C2.12465 2.57388 2.15123 2.55328 2.18603 2.52671C2.25565 2.47354 2.35794 2.39667 2.48584 2.30402C2.74236 2.11819 3.09838 1.87145 3.4982 1.6259C3.90003 1.37911 4.33391 1.14109 4.74751 0.966703C5.17298 0.787313 5.52002 0.7 5.76471 0.7V-0.7ZM9.88235 2.05882C10.3182 1.5111 10.3182 1.51103 10.3181 1.51096C10.318 1.51092 10.3179 1.51084 10.3178 1.51076C10.3176 1.51062 10.3174 1.51044 10.3172 1.51024C10.3166 1.50982 10.316 1.50928 10.3151 1.50862C10.3134 1.50729 10.3111 1.50548 10.3082 1.50319C10.3024 1.49861 10.2942 1.49213 10.2836 1.48387C10.2624 1.46736 10.2319 1.44373 10.193 1.414C10.1152 1.35458 10.0034 1.2706 9.86487 1.17024C9.5885 0.97004 9.20211 0.702074 8.76385 0.432922C8.32761 0.165003 7.82775 -0.111676 7.32579 -0.323319C6.8357 -0.529958 6.28536 -0.7 5.76471 -0.7V0.7C6.00937 0.7 6.3564 0.787311 6.78187 0.966702C7.19547 1.14109 7.62935 1.37911 8.03119 1.6259C8.43102 1.87146 8.78704 2.1182 9.04356 2.30402C9.17147 2.39668 9.27376 2.47355 9.34339 2.52672C9.37818 2.55328 9.40477 2.57389 9.42225 2.58754C9.43099 2.59436 9.43746 2.59944 9.44153 2.60265C9.44356 2.60425 9.445 2.60539 9.44583 2.60604C9.44624 2.60637 9.4465 2.60658 9.44661 2.60666C9.44666 2.6067 9.44668 2.60672 9.44665 2.6067C9.44664 2.60669 9.44659 2.60665 9.44658 2.60664C9.44653 2.6066 9.44646 2.60654 9.88235 2.05882ZM12.0349 6.99999C12.0349 6.05815 11.6281 4.71524 11.2691 3.69324C11.083 3.16354 10.8974 2.68658 10.7584 2.34229C10.6888 2.1699 10.6307 2.0302 10.5898 1.93309C10.5693 1.88453 10.5531 1.84658 10.5419 1.82048C10.5363 1.80743 10.5319 1.79734 10.5289 1.79037C10.5274 1.78688 10.5262 1.78417 10.5254 1.78226C10.525 1.78131 10.5247 1.78055 10.5244 1.78C10.5243 1.77972 10.5242 1.77949 10.5241 1.77932C10.5241 1.77923 10.524 1.77914 10.524 1.77909C10.524 1.77901 10.524 1.77894 9.88235 2.05882C9.24074 2.3387 9.24072 2.33866 9.24071 2.33863C9.24071 2.33864 9.2407 2.33862 9.24071 2.33863C9.24072 2.33866 9.24075 2.33874 9.24081 2.33886C9.24092 2.33912 9.24112 2.33957 9.2414 2.34022C9.24197 2.34153 9.24288 2.34362 9.24411 2.34648C9.24659 2.35221 9.25039 2.36101 9.25543 2.37275C9.26551 2.39622 9.28052 2.43138 9.29976 2.47702C9.33825 2.56831 9.39361 2.70135 9.46021 2.86633C9.59359 3.19676 9.77111 3.65299 9.9482 4.15719C10.3155 5.20298 10.6349 6.33064 10.6349 6.99999H12.0349ZM10.1344 12.4361C10.7658 11.8044 11.2332 10.8528 11.5426 9.90137C11.8559 8.93788 12.0349 7.88926 12.0349 6.99999H10.6349C10.6349 7.72192 10.4858 8.62402 10.2112 9.46839C9.93272 10.3248 9.55225 11.0382 9.14431 11.4463L10.1344 12.4361ZM5.66747 14C5.89725 14.6612 5.89733 14.6612 5.89742 14.6612C5.89746 14.6611 5.89756 14.6611 5.89765 14.6611C5.89783 14.661 5.89805 14.6609 5.89832 14.6608C5.89885 14.6607 5.89957 14.6604 5.90046 14.6601C5.90223 14.6595 5.90471 14.6586 5.90788 14.6575C5.9142 14.6553 5.92327 14.6521 5.93492 14.6479C5.95821 14.6397 5.99188 14.6276 6.03472 14.612C6.12038 14.5809 6.24291 14.5356 6.39281 14.478C6.69207 14.3631 7.10299 14.1985 7.54866 13.9998C8.40412 13.6185 9.51162 13.0591 10.1344 12.4361L9.14432 11.4463C8.72772 11.863 7.84927 12.333 6.97863 12.7211C6.56125 12.9072 6.17408 13.0624 5.89102 13.171C5.74975 13.2253 5.63506 13.2677 5.55629 13.2963C5.51692 13.3106 5.48656 13.3215 5.4664 13.3287C5.45631 13.3322 5.44878 13.3349 5.44395 13.3366C5.44153 13.3374 5.43979 13.3381 5.43874 13.3384C5.43822 13.3386 5.43786 13.3387 5.43769 13.3388C5.4376 13.3388 5.43756 13.3388 5.43756 13.3388C5.43756 13.3388 5.43759 13.3388 5.43759 13.3388C5.43764 13.3388 5.43769 13.3388 5.66747 14ZM1.19945 12.4361C1.82228 13.0591 2.93011 13.6185 3.78581 13.9999C4.23161 14.1985 4.64267 14.3632 4.94204 14.478C5.09198 14.5356 5.21456 14.5809 5.30025 14.6121C5.34311 14.6276 5.37678 14.6397 5.40009 14.648C5.41174 14.6521 5.42081 14.6553 5.42714 14.6575C5.4303 14.6586 5.43278 14.6595 5.43456 14.6601C5.43545 14.6604 5.43616 14.6607 5.4367 14.6609C5.43696 14.661 5.43719 14.661 5.43737 14.6611C5.43746 14.6611 5.43756 14.6612 5.4376 14.6612C5.43769 14.6612 5.43777 14.6612 5.66747 14C5.89717 13.3388 5.89723 13.3388 5.89727 13.3388C5.89727 13.3388 5.8973 13.3388 5.8973 13.3388C5.8973 13.3388 5.89726 13.3388 5.89717 13.3388C5.897 13.3387 5.89665 13.3386 5.89612 13.3384C5.89507 13.338 5.89333 13.3374 5.89091 13.3366C5.88607 13.3349 5.87854 13.3322 5.86845 13.3286C5.84828 13.3215 5.81791 13.3106 5.77853 13.2963C5.69972 13.2677 5.58499 13.2252 5.44367 13.171C5.16051 13.0623 4.77321 12.9072 4.35569 12.7211C3.48476 12.333 2.60612 11.863 2.1896 11.4463L1.19945 12.4361ZM-0.7 6.99999C-0.7 7.88912 -0.52131 8.93766 -0.208242 9.90116C0.100911 10.8526 0.567956 11.8043 1.19944 12.436L2.18961 11.4463C1.78172 11.0382 1.4015 10.3249 1.12323 9.46853C0.848884 8.62418 0.7 7.72204 0.7 6.99999H-0.7ZM1.64706 2.05882C1.01961 1.74848 1.01958 1.74855 1.01954 1.74863C1.01952 1.74868 1.01947 1.74878 1.01942 1.74887C1.01933 1.74905 1.01922 1.74928 1.01908 1.74956C1.0188 1.75012 1.01843 1.75089 1.01795 1.75185C1.017 1.75378 1.01566 1.75651 1.01394 1.76002C1.0105 1.76703 1.00554 1.77715 0.999167 1.79024C0.986424 1.81642 0.968016 1.85446 0.944752 1.90312C0.898237 2.00041 0.832226 2.14034 0.75321 2.31298C0.595415 2.65773 0.384579 3.13547 0.173208 3.6662C-0.0375694 4.19544 -0.25244 4.78622 -0.415555 5.35534C-0.57539 5.91302 -0.7 6.49826 -0.7 6.99999H0.7C0.7 6.69611 0.781272 6.2609 0.930261 5.74106C1.07597 5.23267 1.27286 4.68886 1.47385 4.1842C1.67424 3.68104 1.87517 3.2256 2.0262 2.89563C2.1016 2.73091 2.16426 2.5981 2.20782 2.50699C2.22959 2.46145 2.24657 2.42637 2.25796 2.40298C2.26365 2.39129 2.26794 2.38252 2.27073 2.37684C2.27213 2.37399 2.27315 2.37192 2.27378 2.37063C2.2741 2.36999 2.27432 2.36955 2.27444 2.3693C2.2745 2.36918 2.27453 2.36911 2.27454 2.36908C2.27455 2.36907 2.27454 2.36909 2.27454 2.36909C2.27453 2.36912 2.2745 2.36917 1.64706 2.05882ZM3.6134 6.95375C4.63119 6.95375 5.45627 6.12867 5.45627 5.11088H4.05627C4.05627 5.35547 3.85799 5.55375 3.6134 5.55375V6.95375ZM1.77053 5.11088C1.77053 6.12867 2.59561 6.95375 3.6134 6.95375V5.55375C3.36881 5.55375 3.17053 5.35547 3.17053 5.11088H1.77053ZM3.6134 3.26801C2.59561 3.26801 1.77053 4.09309 1.77053 5.11088H3.17053C3.17053 4.86629 3.36881 4.66801 3.6134 4.66801V3.26801ZM5.45627 5.11088C5.45627 4.09309 4.63119 3.26801 3.6134 3.26801V4.66801C3.85799 4.66801 4.05627 4.86629 4.05627 5.11088H5.45627ZM8.35883 5.11088C8.35883 5.35547 8.16055 5.55375 7.91596 5.55375V6.95375C8.93375 6.95375 9.75883 6.12867 9.75883 5.11088H8.35883ZM7.91596 4.66801C8.16055 4.66801 8.35883 4.86629 8.35883 5.11088H9.75883C9.75883 4.09309 8.93375 3.26801 7.91596 3.26801V4.66801ZM7.47309 5.11088C7.47309 4.86629 7.67137 4.66801 7.91596 4.66801V3.26801C6.89817 3.26801 6.07309 4.09309 6.07309 5.11088H7.47309ZM7.91596 5.55375C7.67137 5.55375 7.47309 5.35547 7.47309 5.11088H6.07309C6.07309 6.12867 6.89817 6.95375 7.91596 6.95375V5.55375Z" fill="#8E8E93" mask="url(#path-1-inside-1_491_664)"/>
<path d="M4.41111 7.23624C4.65631 7.2354 4.91548 7.33625 5.1249 7.54573L5.66481 8.08561L6.20472 7.5457C6.41414 7.33628 6.67332 7.23543 6.91852 7.23621C6.93485 7.23627 6.95116 7.23677 6.96736 7.23771C7.22656 7.25299 7.45973 7.37203 7.6334 7.5457C7.80703 7.71939 7.92611 7.95253 7.94136 8.21177C7.95664 8.47102 7.85676 8.75101 7.63337 8.97437L7.09346 9.51434L7.63334 10.0542C7.85671 10.2776 7.95655 10.5576 7.9413 10.8168C7.92602 11.0761 7.807 11.3092 7.63331 11.4829C7.45962 11.6565 7.22648 11.7756 6.96725 11.7909C6.70804 11.8062 6.428 11.7063 6.20464 11.4829L5.66481 10.943L5.1249 11.4829C4.90154 11.7063 4.6215 11.8061 4.36229 11.7909C4.10304 11.7757 3.86989 11.6566 3.69623 11.4829C3.52259 11.3093 3.40352 11.0761 3.38827 10.8169C3.37299 10.5577 3.47286 10.2776 3.69626 10.0542L4.23617 9.51434L3.69628 8.97437C3.47292 8.75101 3.37307 8.47102 3.38832 8.21177C3.4036 7.95256 3.52262 7.71942 3.69631 7.54573C3.87 7.37209 4.10315 7.25299 4.36238 7.23774C4.37864 7.23679 4.39493 7.23629 4.41122 7.23624H4.41111ZM4.4373 7.73631C4.42202 7.73581 4.40683 7.73603 4.39163 7.73692C4.27011 7.74403 4.14487 7.80415 4.04978 7.89925C3.95468 7.99435 3.89459 8.11956 3.88742 8.2411C3.88028 8.36262 3.91481 8.48578 4.04978 8.62077L6.55833 11.1293C6.69335 11.2642 6.81648 11.2988 6.93799 11.2916C7.05951 11.2845 7.18475 11.2244 7.27985 11.1293C7.37494 11.0342 7.43504 10.909 7.4422 10.7875C7.44934 10.6659 7.41481 10.5428 7.27985 10.4078L4.7713 7.89925C4.65322 7.78118 4.54415 7.73998 4.4373 7.73631ZM6.89232 7.73631C6.78547 7.74 6.67646 7.78118 6.55833 7.89928L6.01839 8.43921L6.73988 9.16071L7.27985 8.6208C7.41481 8.48578 7.44932 8.36265 7.4422 8.24113C7.43504 8.11959 7.37497 7.99437 7.27985 7.89928C7.18475 7.80418 7.05954 7.74406 6.93799 7.73692C6.92279 7.73601 6.90755 7.7358 6.89232 7.73631ZM4.58977 9.86786L4.04978 10.4078C3.91481 10.5428 3.88031 10.666 3.88742 10.7875C3.89459 10.909 3.95465 11.0342 4.04978 11.1293C4.14487 11.2244 4.27009 11.2845 4.39163 11.2917C4.51315 11.2988 4.63631 11.2643 4.7713 11.1293L5.31118 10.5894L4.58977 9.86789V9.86786Z" fill="#8E8E93"/>
</svg>
