<svg width="20" height="20" viewBox="0 0 20 20" fill="none" xmlns="http://www.w3.org/2000/svg">
<path d="M15.8155 8.45497C16.1394 8.79493 16.2959 8.95873 16.3425 9.35037C16.3623 9.53523 16.3423 9.72218 16.2839 9.89867C16.2255 10.0752 16.13 10.2371 16.0038 10.3736C15.8776 10.5102 15.7237 10.6181 15.5523 10.6902C15.381 10.7624 15.1962 10.797 15.0103 10.7918L15.0416 11.1121C15.078 11.4695 15.1122 11.816 15.1122 12.1531C15.1143 12.2626 15.0736 12.3687 14.9989 12.4488C14.9242 12.5289 14.8213 12.5769 14.7119 12.5826L13.4889 12.6262C13.4482 12.6509 13.4145 12.6856 13.3912 12.7271C13.3679 12.7685 13.3556 12.8153 13.3556 12.8628C13.3556 12.9104 13.3679 12.9572 13.3912 12.9986C13.4145 13.04 13.4482 13.0748 13.4889 13.0994L14.7046 13.8783C14.8038 13.9406 14.881 14.0323 14.9254 14.1407C14.9698 14.2491 14.9791 14.3686 14.9521 14.4826C14.5517 15.9676 13.4889 16.9868 11.0938 17.2852C10.6323 17.3391 10.1679 17.358 9.70342 17.3435C9.51899 17.338 9.33762 17.3915 9.18573 17.4962C9.03384 17.601 8.91936 17.7515 8.85898 17.9259L8.33484 19.3818H1.05514L2.64211 14.3661C2.80038 13.8615 2.7533 13.3148 2.51108 12.8446C1.6448 11.1849 0.261654 8.31666 0.0432625 6.54769C-0.138116 5.11899 0.255427 3.67676 1.13733 2.5382C2.01924 1.39964 3.31728 0.658006 4.74595 0.476422L8.24748 0.0396401C9.67347 -0.133443 11.11 0.264716 12.2434 1.14718C13.3769 2.02964 14.1151 3.32471 14.2969 4.7496L14.5735 6.93351C14.9435 7.47504 15.359 7.98404 15.8155 8.45497ZM19.9969 13.9002V12.4879C20.004 12.4395 19.9988 12.3901 19.9817 12.3443C19.9647 12.2985 19.9363 12.2577 19.8993 12.2258C19.8623 12.1938 19.8178 12.1718 19.7699 12.1616C19.7221 12.1514 19.6725 12.1535 19.6257 12.1676L17.267 12.8956C17.2088 12.9147 17.158 12.9518 17.1221 13.0015C17.0861 13.0511 17.0668 13.1109 17.0668 13.1722C17.0668 13.2335 17.0861 13.2933 17.1221 13.343C17.158 13.3926 17.2088 13.4297 17.267 13.4488L19.6257 14.1768C19.6687 14.1893 19.7141 14.1916 19.7582 14.1836C19.8024 14.1756 19.844 14.1575 19.88 14.1307C19.916 14.1039 19.9452 14.0692 19.9655 14.0292C19.9858 13.9892 19.9966 13.945 19.9969 13.9002ZM17.995 9.45957L18.9923 10.4569C19.0236 10.4889 19.0472 10.5277 19.0611 10.5703C19.0751 10.6128 19.079 10.658 19.0727 10.7024C19.0663 10.7467 19.0499 10.789 19.0246 10.8259C18.9993 10.8629 18.9658 10.8936 18.9268 10.9155L16.7429 12.0803C16.6886 12.1074 16.6273 12.1169 16.5673 12.1075C16.5074 12.0981 16.4519 12.0702 16.4086 12.0277C16.3653 11.9852 16.3364 11.9302 16.3258 11.8705C16.3153 11.8107 16.3237 11.7492 16.3498 11.6944L17.5145 9.51053C17.537 9.46848 17.5694 9.43258 17.6089 9.40594C17.6484 9.3793 17.6939 9.36275 17.7413 9.35772C17.7887 9.3527 17.8366 9.35935 17.8808 9.3771C17.925 9.39486 17.9642 9.42317 17.995 9.45957ZM18.9923 15.9458L17.995 16.9431C17.9643 16.9797 17.9251 17.0081 17.8809 17.026C17.8366 17.0438 17.7887 17.0505 17.7412 17.0455C17.6937 17.0405 17.6483 17.0239 17.6087 16.9971C17.5692 16.9704 17.5369 16.9343 17.5145 16.8921L16.3498 14.7082C16.3237 14.6535 16.3153 14.5919 16.3258 14.5322C16.3364 14.4724 16.3653 14.4175 16.4086 14.375C16.4519 14.3325 16.5074 14.3046 16.5673 14.2952C16.6273 14.2857 16.6886 14.2953 16.7429 14.3224L18.9268 15.4872C18.966 15.509 18.9995 15.5396 19.0249 15.5766C19.0503 15.6135 19.0668 15.6559 19.0731 15.7002C19.0795 15.7446 19.0755 15.7899 19.0615 15.8325C19.0475 15.8751 19.0238 15.9138 18.9923 15.9458Z" fill="white"/>
</svg>
