<svg width="14" height="16" viewBox="0 0 14 16" fill="none" xmlns="http://www.w3.org/2000/svg">
<path d="M12.2133 4.86857L13.2952 3.78667C12.9524 3.3981 12.6095 3.04762 12.221 2.71238L11.139 3.80952C9.9581 2.84952 8.47238 2.28571 6.85714 2.28571C5.03852 2.28571 3.29437 3.00816 2.00841 4.29413C0.722447 5.58009 0 7.32423 0 9.14286C0 10.9615 0.722447 12.7056 2.00841 13.9916C3.29437 15.2776 5.03852 16 6.85714 16C10.6667 16 13.7143 12.9295 13.7143 9.14286C13.7143 7.52762 13.1505 6.0419 12.2133 4.86857ZM7.61905 9.90476H6.09524V4.57143H7.61905V9.90476ZM9.14286 0H4.57143V1.52381H9.14286V0Z" fill="white"/>
</svg>
