<svg width="32" height="23" viewBox="0 0 32 23" fill="none" xmlns="http://www.w3.org/2000/svg">
<path d="M0 8.21429C0 7.30696 0.735532 6.57143 1.64286 6.57143H8.21428C9.12161 6.57143 9.85714 7.30696 9.85714 8.21429V21.3571C9.85714 22.2645 9.12161 23 8.21428 23H1.64286C0.735532 23 0 22.2645 0 21.3571V8.21429Z" fill="white"/>
<path d="M10.6786 1.64286C10.6786 0.735533 11.4141 0 12.3214 0H18.8929C19.8002 0 20.5357 0.735532 20.5357 1.64286V21.3571C20.5357 22.2645 19.8002 23 18.8929 23H12.3214C11.4141 23 10.6786 22.2645 10.6786 21.3571V1.64286Z" fill="white"/>
<path d="M21.3571 13.9643C21.3571 13.057 22.0927 12.3214 23 12.3214H29.5714C30.4788 12.3214 31.2143 13.057 31.2143 13.9643V21.3571C31.2143 22.2645 30.4788 23 29.5714 23H23C22.0927 23 21.3571 22.2645 21.3571 21.3571V13.9643Z" fill="white"/>
</svg>
