<svg width="13" height="14" viewBox="0 0 13 14" fill="none" xmlns="http://www.w3.org/2000/svg">
<path d="M3.8307 7.05287L5.2658 8.47279C5.07982 8.64628 4.82858 8.75012 4.55423 8.744C3.99644 8.73156 3.55434 8.2693 3.56678 7.71151C3.57245 7.45721 3.67161 7.22697 3.8307 7.05287Z" fill="#FFD60A"/>
<path d="M8.71852 7.05287L7.28342 8.47279C7.4694 8.64628 7.72064 8.75012 7.99499 8.744C8.55278 8.73156 8.99488 8.2693 8.98244 7.71151C8.97677 7.45721 8.87761 7.22697 8.71852 7.05287Z" fill="#FFD60A"/>
<path fill-rule="evenodd" clip-rule="evenodd" d="M10.9914 0L11.2226 0.321506C11.4286 0.607973 11.8062 1.39117 11.9576 2.52621C12.0882 3.50571 11.8509 4.3535 11.5564 4.8548C11.6241 4.95824 11.7001 5.08463 11.7758 5.24002C11.9203 5.53644 12.0622 5.93177 12.1829 6.50374C12.3591 7.33877 12.4077 8.31981 12.4394 8.95968C12.4502 9.17695 12.459 9.35489 12.4703 9.47441L12.5113 9.91254H12.0713C11.5964 9.91254 10.7489 9.98787 9.88836 10.395C9.5612 10.5498 9.29652 10.9306 9.02147 11.4945C8.93524 11.6713 8.85592 11.8482 8.77427 12.0301C8.72792 12.1334 8.68083 12.2384 8.63131 12.346C8.49972 12.6318 8.35599 12.9241 8.18814 13.1787C7.93178 13.5675 7.54072 13.7689 7.19072 13.8739C6.83959 13.9794 6.49116 14 6.26067 14C6.03025 14 5.6797 13.9794 5.3265 13.8742C4.97497 13.7696 4.58025 13.5686 4.32319 13.1787C4.15534 12.9241 4.01161 12.6318 3.88002 12.346C3.8305 12.2384 3.78341 12.1334 3.73706 12.0301C3.65541 11.8482 3.57609 11.6713 3.48985 11.4945C3.21481 10.9306 2.95013 10.5498 2.62297 10.395C1.76245 9.98787 0.914888 9.91254 0.440057 9.91254H0L0.0410752 9.47441C0.0522803 9.35489 0.0611054 9.17695 0.0718816 8.95967C0.103617 8.31981 0.152273 7.33877 0.328471 6.50374C0.449161 5.93177 0.591053 5.53644 0.735528 5.24002C0.811262 5.08463 0.887258 4.95824 0.954946 4.8548C0.660424 4.3535 0.423172 3.50571 0.553773 2.52621C0.705111 1.39117 1.08269 0.607973 1.2887 0.321506L1.51992 3.82167e-08L4.08916 1.80193C4.73778 1.50102 5.5366 1.37697 6.25066 1.37697C6.96406 1.37697 7.77121 1.50083 8.42204 1.80203L10.9914 0ZM1.50171 4.13994C1.74997 3.86485 2.04482 3.58449 2.33021 3.35099L2.83773 3.97129C2.4162 4.31618 1.99124 4.75968 1.77274 5.07941C1.7546 5.10595 1.73658 5.1318 1.7186 5.15759C1.63285 5.28061 1.54804 5.40227 1.45597 5.59116C1.34532 5.8182 1.2224 6.14919 1.11267 6.66921C0.951146 7.43467 0.909371 8.27863 0.87789 8.91461C0.874235 8.98845 0.870719 9.05948 0.86717 9.12726C1.42512 9.16861 2.18726 9.30222 2.96573 9.67053C3.57027 9.95655 3.93674 10.5825 4.2102 11.1432C4.30132 11.33 4.39086 11.5294 4.47648 11.7201C4.52153 11.8205 4.56549 11.9184 4.60803 12.0108C4.73661 12.2901 4.85961 12.5363 4.99231 12.7375C5.10702 12.9115 5.30339 13.0311 5.55518 13.1061C5.80531 13.1805 6.07033 13.1985 6.26067 13.1985C6.45095 13.1985 6.71309 13.1805 6.96028 13.1063C7.20859 13.0318 7.4036 12.9126 7.51902 12.7375C7.65172 12.5363 7.77472 12.2901 7.9033 12.0108C7.94584 11.9184 7.9898 11.8205 8.03485 11.7201C8.12047 11.5294 8.21001 11.33 8.30113 11.1432C8.57459 10.5825 8.94106 9.95655 9.5456 9.67053C10.3241 9.30222 11.0862 9.16861 11.6442 9.12726C11.6406 9.05948 11.6371 8.98844 11.6334 8.91461C11.602 8.27863 11.5602 7.43467 11.3987 6.66921C11.2889 6.14919 11.166 5.8182 11.0554 5.59116C10.9633 5.40227 10.8785 5.28061 10.7927 5.15759C10.7747 5.1318 10.7567 5.10595 10.7386 5.07941C10.5201 4.75968 10.0951 4.31618 9.6736 3.97129L10.1811 3.35099C10.4665 3.58449 10.7614 3.86485 11.0096 4.13994C11.1446 3.77891 11.2458 3.25244 11.1631 2.63213C11.0746 1.96809 10.9023 1.46073 10.7602 1.14111L8.47744 2.7421L8.25711 2.61725C7.73812 2.32315 6.97321 2.17844 6.25066 2.17844C5.52897 2.17844 4.77373 2.32286 4.25422 2.61725L4.03389 2.7421L1.75116 1.14111C1.609 1.46073 1.43674 1.96809 1.3482 2.63213C1.2655 3.25244 1.36668 3.77891 1.50171 4.13994Z" fill="#FFD60A"/>
<path d="M5.20876 12.0965C5.20876 12.0965 5.67961 11.9262 6.28071 11.9262C6.88181 11.9262 7.35267 12.0965 7.35267 12.0965V13.5392H5.20876V12.0965Z" fill="#FFD60A"/>
</svg>
